<svg id="Layer_1" data-name="Layer 1" xmlns="http://www.w3.org/2000/svg" viewBox="0 0 106.41 28.2"><defs><style>.cls-1{fill:#010202;}</style></defs><path class="cls-1" d="M7.83,10.56H9.61A1.51,1.51,0,0,0,11.29,9c0-1.32-.71-1.71-1.75-1.71H7.83ZM6,5.74H9.83A3,3,0,0,1,13.16,9,3,3,0,0,1,10,12.06H7.83v3.21H6Z"/><path class="cls-1" d="M16.71,7.48h0l-1.31,4.36H18ZM15.65,5.74h2.09l3.19,9.53H19.05l-.55-1.85H14.89l-.55,1.85H12.47Z"/><path class="cls-1" d="M29,12.34c0,1.94-1.54,3.17-3.85,3.17s-3.84-1.23-3.84-3.17V5.74h1.8v6.13c0,1.17.49,1.9,2,1.9s2-.73,2-1.9V5.74H29Z"/><polygon class="cls-1" points="30.2 5.74 31.99 5.74 31.99 13.61 35.86 13.61 35.86 15.27 30.2 15.27 30.2 5.74"/><path class="cls-1" d="M38.17,10.51c0,1.65.8,3.34,2.7,3.34s2.69-1.69,2.69-3.34-.79-3.35-2.69-3.35-2.7,1.68-2.7,3.35m7.26,0c0,2.69-1.71,5-4.56,5s-4.57-2.31-4.57-5,1.71-5,4.57-5,4.56,2.31,4.56,5"/><path class="cls-1" d="M58.54,7.48h0L57.2,11.84h2.65ZM57.48,5.74h2.09l3.18,9.53H60.88l-.55-1.85H56.71l-.55,1.85H54.29Z"/><path class="cls-1" d="M65.59,10.18h2a1.41,1.41,0,0,0,1.56-1.43c0-.87-.59-1.43-1.83-1.43H65.59v2.86ZM63.8,5.74h4c2,0,3.21,1.2,3.21,2.88a2.67,2.67,0,0,1-1.89,2.81l2.13,3.84H69.15l-1.84-3.51H65.59v3.51H63.8Z"/><polygon class="cls-1" points="74.69 7.4 72.08 7.4 72.08 5.74 79.09 5.74 79.09 7.4 76.48 7.4 76.48 15.27 74.69 15.27 74.69 7.4"/><rect class="cls-1" x="80.23" y="5.74" width="1.79" height="9.53"/><polygon class="cls-1" points="83.15 5.74 84.8 5.74 88.8 12.53 88.83 12.53 88.83 5.74 90.46 5.74 90.46 15.27 88.81 15.27 84.81 8.48 84.78 8.48 84.78 15.27 83.15 15.27 83.15 5.74"/><path class="cls-1" d="M93.11,12.4A3.31,3.31,0,0,0,96,13.85c.87,0,2-.29,2-1.22,0-.75-.69-1-2-1.26L95,11.13c-1.52-.34-2.86-.91-2.86-2.66,0-2,1.91-3,3.69-3a4.72,4.72,0,0,1,4,1.91L98.31,8.54A2.68,2.68,0,0,0,95.8,7.16c-1,0-1.81.38-1.81,1.06s.9,1,2,1.21l1.17.26c1.42.31,2.76.88,2.76,2.69,0,2.33-2.2,3.13-4.18,3.13a5,5,0,0,1-4.13-2Z"/><path class="cls-1" d="M44.41,15.16v.11h1.71V12.71a5.35,5.35,0,0,1-1.71,2.45"/><path class="cls-1" d="M51.91,5.74H50.58l-.87,3.69-.87,3.7h0l-.87-3.7-.87-3.69H44.41v.11A5.44,5.44,0,0,1,46.13,8.3s.07.2.15.46l.44,1.75,1.22,4.76h1.69l.94-4,.94-4h0v8h1.72V5.74Z"/><path class="cls-1" d="M6.71,21.62l-.26.78H6.11L7,19.9h.39l.85,2.5H7.87l-.27-.78Zm.82-.26-.24-.72a2.92,2.92,0,0,1-.13-.46h0c0,.15-.08.3-.13.46l-.24.72Z"/><path class="cls-1" d="M9.38,19.93a3.7,3.7,0,0,1,.62-.05,1,1,0,0,1,.73.2.64.64,0,0,1,.19.48.66.66,0,0,1-.47.64h0a.65.65,0,0,1,.37.51,4.26,4.26,0,0,0,.19.69h-.33a3.26,3.26,0,0,1-.17-.6c-.07-.35-.21-.48-.5-.49H9.7v1.09H9.38Zm.32,1.14H10c.35,0,.57-.19.57-.47s-.23-.47-.58-.47a1.17,1.17,0,0,0-.32,0Z"/><path class="cls-1" d="M14.25,22.77a10,10,0,0,1-1-.29l-.15,0A1.16,1.16,0,0,1,12,21.18a1.19,1.19,0,0,1,1.17-1.33,1.14,1.14,0,0,1,1.12,1.27,1.18,1.18,0,0,1-.71,1.21h0a6.09,6.09,0,0,0,.73.16ZM14,21.14c0-.5-.26-1-.79-1s-.82.51-.82,1.05.29,1,.8,1S14,21.71,14,21.14Z"/><path class="cls-1" d="M15.86,19.9v1.48c0,.56.25.8.59.8s.61-.24.61-.8V19.9h.33v1.46c0,.77-.41,1.09-.95,1.09s-.9-.3-.9-1.08V19.9Z"/><path class="cls-1" d="M19.07,19.9v2.51h-.33V19.9Z"/><path class="cls-1" d="M20.91,20.17h-.77V19.9H22v.27h-.77v2.24h-.32V20.17Z"/><path class="cls-1" d="M24.38,21.23h-1v.9h1.09v.27H23.08V19.89h1.35v.28h-1V21h1v.27Z"/><path class="cls-1" d="M27.46,22.32a1.61,1.61,0,0,1-.66.12,1.17,1.17,0,0,1-1.24-1.27,1.25,1.25,0,0,1,1.31-1.32,1.2,1.2,0,0,1,.59.12l-.08.26a1.13,1.13,0,0,0-.5-.1.93.93,0,0,0-1,1,.91.91,0,0,0,1,1,1.35,1.35,0,0,0,.53-.1Z"/><path class="cls-1" d="M29.14,20.17h-.77V19.9h1.86v.27h-.77v2.24h-.32Z"/><path class="cls-1" d="M31.63,19.9v1.48c0,.56.25.8.58.8s.61-.24.61-.8V19.9h.33v1.46c0,.77-.4,1.09-.95,1.09s-.9-.3-.9-1.08V19.9Z"/><path class="cls-1" d="M34.51,19.93a3.7,3.7,0,0,1,.62-.05,1,1,0,0,1,.73.2.65.65,0,0,1,.2.48.66.66,0,0,1-.48.64h0a.63.63,0,0,1,.37.51,3.2,3.2,0,0,0,.2.69h-.34a3.26,3.26,0,0,1-.17-.6c-.07-.35-.21-.48-.5-.49h-.3v1.09h-.33Zm.32,1.14h.34c.34,0,.56-.19.56-.47s-.23-.47-.58-.47a1.17,1.17,0,0,0-.32,0Z"/><path class="cls-1" d="M37.72,21.62l-.27.78h-.33L38,19.9h.39l.86,2.5h-.35l-.26-.78Zm.82-.26-.25-.72c0-.16-.09-.31-.13-.46h0a4.48,4.48,0,0,1-.12.46l-.25.72Z"/><path class="cls-1" d="M45.44,22.41l-.27-.28a1.12,1.12,0,0,1-.82.32.8.8,0,0,1-.87-.79.91.91,0,0,1,.56-.82h0a1,1,0,0,1-.24-.59.69.69,0,0,1,.72-.7.59.59,0,0,1,.62.6c0,.3-.17.53-.62.75v0l.69.78a2.13,2.13,0,0,0,.27-.82h.33a2.1,2.1,0,0,1-.4,1l.46.5ZM45,21.92c-.16-.18-.48-.53-.79-.89a.7.7,0,0,0-.36.58.56.56,0,0,0,.57.57A.76.76,0,0,0,45,21.92Zm-.85-1.72a.8.8,0,0,0,.21.51c.29-.16.47-.31.47-.55a.34.34,0,0,0-.33-.37A.37.37,0,0,0,44.14,20.2Z"/><path class="cls-1" d="M49,19.93a4.75,4.75,0,0,1,.69-.05,1.46,1.46,0,0,1,1,.31,1.18,1.18,0,0,1,.35.9,1.31,1.31,0,0,1-.36,1,1.56,1.56,0,0,1-1.11.36,5,5,0,0,1-.59,0V19.93Zm.33,2.22.33,0a1,1,0,0,0,1.06-1.07.88.88,0,0,0-1-1,1.74,1.74,0,0,0-.38,0Z"/><path class="cls-1" d="M53.61,21.23h-1v.9h1.09v.27H52.31V19.89h1.35v.28h-1V21h1Z"/><path class="cls-1" d="M54.89,22a1.16,1.16,0,0,0,.58.16c.33,0,.53-.17.53-.42s-.14-.37-.48-.5-.66-.36-.66-.71a.73.73,0,0,1,.81-.69,1.07,1.07,0,0,1,.56.13l-.09.26a1.05,1.05,0,0,0-.48-.12c-.34,0-.47.21-.47.38s.15.35.5.48.64.37.64.74-.29.72-.88.72a1.28,1.28,0,0,1-.64-.16Z"/><path class="cls-1" d="M57.89,19.9v2.51h-.32V19.9Z"/><path class="cls-1" d="M61.17,22.29a2.22,2.22,0,0,1-.78.14,1.24,1.24,0,0,1-.93-.33,1.33,1.33,0,0,1,1-2.23,1.39,1.39,0,0,1,.62.12l-.08.26a1.26,1.26,0,0,0-.55-.11.94.94,0,0,0-1,1,.91.91,0,0,0,1,1,1.05,1.05,0,0,0,.43-.06v-.75h-.51v-.26h.82v1.2Z"/><path class="cls-1" d="M62.46,22.41V19.9h.35l.81,1.27a8.65,8.65,0,0,1,.45.81h0c0-.34,0-.64,0-1V19.9h.3v2.51H64l-.79-1.28a6.42,6.42,0,0,1-.47-.83h0c0,.31,0,.62,0,1v1.08Z"/></svg>